<svg xmlns="http://www.w3.org/2000/svg" viewBox="0 0 257.62 39.59"><defs><style>.cls-1{fill:#231f20;}.cls-2,.cls-3{fill:#ca0a0a;}.cls-3{font-size:28.29px;font-family:CormorantGaramond-Regular, Cormorant Garamond;letter-spacing:0em;}.cls-4{letter-spacing:0.03em;}.cls-5{letter-spacing:0.01em;}.cls-6{letter-spacing:0.02em;}</style></defs><g id="Warstwa_2" data-name="Warstwa 2"><g id="Warstwa_1-2" data-name="Warstwa 1"><path class="cls-1" d="M28,15.3c8.09-.49,11.24-5.79,17.42-6.44a.58.58,0,0,0,.41-.93,10.82,10.82,0,0,0-19.11,4.91,11.27,11.27,0,0,0-.15,1.85h0a.63.63,0,0,0,.65.64Z"/><path class="cls-1" d="M74.6,4.17c-5.95-8.4-17.82-3-28.2,6.56C40,16.62,36.48,21.52,23.9,21.23c-6.76-.15-14.26-4-22.71-9.54a.76.76,0,0,0-1.09,1C3.39,18.52,12.31,32.2,26.27,38a4,4,0,0,0,5.47-3.35,9.42,9.42,0,0,0-1.89-6.39,12.77,12.77,0,0,1-2.13-4.76s7.65.31,11.68-3.86c3.57-3.68,6.26-2.46,6.26.7-.19,4.15-1.47,7.14-3.35,8.84a17.59,17.59,0,0,1-3.66,2.44s0,.09,0,.07l1.9-.53a2.18,2.18,0,0,0,.55-.22c.39-.22.68-.14.58.37l-.06.35a6.83,6.83,0,0,0,8.45,7.67C73.32,33.5,80.05,11.86,74.6,4.17Z"/><path class="cls-2" d="M39.36,26.83c-.3,0-.73-.12-1.48-.11a1.24,1.24,0,0,0-.27,0,.83.83,0,0,0-.7-.17,1.67,1.67,0,0,1-.94,0,.82.82,0,0,0-.47.19,2.71,2.71,0,0,0-1.08.19,1.56,1.56,0,0,1-.8,0c.17-.23,1.61-2.1,2.62-1.48a.27.27,0,0,0,.32,0,1.3,1.3,0,0,1,.49-.21A3.49,3.49,0,0,1,39.36,26.83Z"/><path class="cls-2" d="M39.36,26.83c-1,1.2-1.8,1.85-3.18,1.76A4.48,4.48,0,0,1,33.6,27l0,0a1.56,1.56,0,0,0,.8,0,2.26,2.26,0,0,1,1.28-.15c.46.11.57.24.89.19a10.16,10.16,0,0,1,1.29-.28C38.63,26.71,39.06,26.86,39.36,26.83Z"/><path class="cls-2" d="M35.5,26.77a.82.82,0,0,1,.47-.19,1.67,1.67,0,0,0,.94,0,.83.83,0,0,1,.7.17"/><path class="cls-1" d="M35.55,24c-.33.15-.81-.16-.53-.53,0,.36.23.42.53.53Z"/><path class="cls-1" d="M37.1,23.91c.74-.18.54-.76.39-1.31.43.49.46,1.39-.39,1.31Z"/><text class="cls-3" transform="translate(95.5 29.64)">R<tspan class="cls-4" x="19.1" y="0">ude nast</tspan><tspan class="cls-5" x="116.96" y="0">r</tspan><tspan class="cls-6" x="127.63" y="0">oje</tspan></text></g></g></svg>